<svg xmlns="http://www.w3.org/2000/svg" xmlns:xlink="http://www.w3.org/1999/xlink" width="40" zoomAndPan="magnify" viewBox="0 0 30 30.000001" height="40" preserveAspectRatio="xMidYMid meet" version="1.0"><defs><clipPath id="id1"><path d="M 0.484375 0 L 29.515625 0 L 29.515625 29.03125 L 0.484375 29.03125 Z M 0.484375 0 " clip-rule="nonzero"/></clipPath><clipPath id="id2"><path d="M 9.195312 9.949219 L 19.355469 9.949219 L 19.355469 17.933594 L 9.195312 17.933594 Z M 9.195312 9.949219 " clip-rule="nonzero"/></clipPath></defs><g clip-path="url(#id1)"><path fill="rgb(100%, 100%, 100%)" d="M 0.484375 0 L 29.515625 0 L 29.515625 36.289062 L 0.484375 36.289062 Z M 0.484375 0 " fill-opacity="1" fill-rule="nonzero"/><path fill="rgb(100%, 100%, 100%)" d="M 0.484375 0 L 29.515625 0 L 29.515625 29.03125 L 0.484375 29.03125 Z M 0.484375 0 " fill-opacity="1" fill-rule="nonzero"/><path fill="rgb(100%, 100%, 100%)" d="M 0.484375 0 L 29.515625 0 L 29.515625 29.03125 L 0.484375 29.03125 Z M 0.484375 0 " fill-opacity="1" fill-rule="nonzero"/><path fill="rgb(100%, 100%, 100%)" d="M 0.484375 0 L 29.515625 0 L 29.515625 29.03125 L 0.484375 29.03125 Z M 0.484375 0 " fill-opacity="1" fill-rule="nonzero"/></g><g clip-path="url(#id2)"><path fill="rgb(0%, 0%, 0%)" d="M 17.925781 10.679688 L 10.625 10.679688 L 14.054688 13.316406 C 14.183594 13.414062 14.363281 13.414062 14.496094 13.316406 Z M 9.917969 11.050781 L 9.917969 17.207031 L 18.628906 17.207031 L 18.628906 11.050781 L 14.9375 13.890625 C 14.546875 14.191406 14 14.191406 13.609375 13.890625 Z M 9.195312 10.679688 C 9.195312 10.277344 9.519531 9.953125 9.917969 9.953125 L 18.628906 9.953125 C 19.03125 9.953125 19.355469 10.277344 19.355469 10.679688 L 19.355469 17.207031 C 19.355469 17.609375 19.03125 17.933594 18.628906 17.933594 L 9.917969 17.933594 C 9.519531 17.933594 9.195312 17.609375 9.195312 17.207031 Z M 9.195312 10.679688 " fill-opacity="1" fill-rule="evenodd"/></g></svg>